<svg width="32" height="32" viewBox="0 0 32 32" fill="none" xmlns="http://www.w3.org/2000/svg">
<path d="M22.7467 17.3332C20.2667 17.3332 18.1867 19.1066 17.6534 21.4666C16.3867 20.9199 15.2267 21.0666 14.3467 21.4532C13.8001 19.0799 11.7201 17.3332 9.25342 17.3332C6.36008 17.3332 4.00008 19.7199 4.00008 22.6666C4.00008 25.6132 6.36008 27.9999 9.25342 27.9999C12.0001 27.9999 14.2401 25.8399 14.4534 23.0932C14.9067 22.7732 16.0934 22.1732 17.5467 23.1199C17.7867 25.8532 20.0001 27.9999 22.7467 27.9999C25.6401 27.9999 28.0001 25.6132 28.0001 22.6666C28.0001 19.7199 25.6401 17.3332 22.7467 17.3332ZM9.25342 26.4799C7.17342 26.4799 5.50675 24.7732 5.50675 22.6666C5.50675 20.5599 7.18675 18.8532 9.25342 18.8532C11.3334 18.8532 13.0001 20.5599 13.0001 22.6666C13.0001 24.7732 11.3334 26.4799 9.25342 26.4799ZM22.7467 26.4799C20.6667 26.4799 19.0001 24.7732 19.0001 22.6666C19.0001 20.5599 20.6667 18.8532 22.7467 18.8532C24.8267 18.8532 26.5067 20.5599 26.5067 22.6666C26.5067 24.7732 24.8134 26.4799 22.7467 26.4799ZM29.3334 13.9999H2.66675V15.9999H29.3334V13.9999ZM20.7067 3.50658C20.4134 2.85324 19.6667 2.50658 18.9601 2.73324L16.0001 3.71991L13.0267 2.73324L12.9601 2.71991C12.2534 2.51991 11.5067 2.89324 11.2401 3.57324L8.00008 11.9999H24.0001L20.7467 3.57324L20.7067 3.50658Z" fill="#BFC8CB"/>
</svg>
