<svg width="549" height="193" viewBox="0 0 549 193" fill="none" xmlns="http://www.w3.org/2000/svg">
<path fill-rule="evenodd" clip-rule="evenodd" d="M271.092 62.3651V67.8651H275.092H279.092V75.8651C279.092 80.2651 278.712 83.8651 278.247 83.8651C277.782 83.8651 276.578 82.9551 275.571 81.8421C272.866 78.8521 263.866 76.5221 258.269 77.3611C244.3 79.4561 236.644 90.2001 236.895 107.357C237.024 116.175 238.818 122.506 242.59 127.452C249.715 136.793 264.649 139.048 274.611 132.288C276.574 130.955 278.386 129.865 278.636 129.865C278.887 129.865 279.092 131.215 279.092 132.865V135.865H290.092H301.092V129.865V123.865H297.592H294.092V90.3651V56.8651H282.592H271.092V62.3651ZM0.092 67.3651V73.8651H4.11H8.128L7.86 98.1151L7.592 122.365L3.796 122.678L0 122.991L0.296 129.178L0.592 135.365L31.342 135.629L62.092 135.894V123.379V110.865H56.611C50.607 110.865 50.466 111.032 49.862 118.865L49.592 122.365H36.592H23.592L23.304 113.115L23.017 103.865H34.054H45.092V98.3651V92.8651H34.092H23.092V83.3651V73.8651H36.592H50.092V77.7831C50.092 84.2511 50.664 84.8651 56.699 84.8651H62.092V72.8651V60.8651H31.092H0.092V67.3651ZM129.092 69.3081V77.7501L124.842 78.0581L120.592 78.3651L120.29 83.6151L119.987 88.8651H124.422H128.857L129.299 105.115C129.777 122.729 130.772 126.832 135.847 132.131C140.437 136.923 146.336 137.605 157.866 134.677C161.04 133.871 162.027 133.176 161.7 131.978C161.458 131.091 160.967 128.213 160.61 125.582L159.96 120.799L156.276 121.465C154.25 121.831 152.441 122.259 152.257 122.416C152.073 122.573 150.616 122.246 149.019 121.69C144.948 120.271 143.914 115.83 144.284 101.365L144.592 89.3651L152.342 89.0731L160.092 88.7811V83.3231V77.8651H152.092H144.092V69.3651V60.8651H136.592H129.092V69.3081ZM85.951 77.8281C75.67 79.6891 70.233 84.4311 69.345 92.3151C68.312 101.474 74.169 107.395 89.221 112.408C98.087 115.361 101.802 118.67 100.009 122.02C98.359 125.104 94.308 126.143 87.592 125.204L81.592 124.365L81.285 120.115L80.977 115.865H74.994H69.011L69.302 124.103L69.592 132.34L76.092 134.136C79.823 135.166 86.639 136.014 92.092 136.125C100.432 136.296 102.196 136.017 106.54 133.842C113.376 130.42 115.605 127.064 115.539 120.292C115.454 111.507 111.275 107.401 96.8 101.875C92.286 100.151 87.579 97.7911 86.342 96.6291C81.255 91.8531 85.094 87.8651 94.779 87.8651C101.574 87.8651 103.092 89.0401 103.092 94.2991C103.092 96.7431 103.354 96.8651 108.592 96.8651H114.092V88.9361V81.0071L108.842 79.4851C102.024 77.5091 91.804 76.7691 85.951 77.8281ZM167.092 83.3651V88.8651H170.506H173.92L174.256 105.115C174.559 119.753 174.825 121.838 176.938 126.129C181.994 136.397 195.519 139.628 206.046 133.084L211.092 129.948V132.906V135.865H222.092H233.092V129.865V123.865H229.592H226.092V100.832V77.7991L214.842 78.0821L203.592 78.3651L203.292 83.5521L202.992 88.7381L206.792 89.0521L210.592 89.3651L210.872 102.198C211.129 113.92 210.964 115.336 208.97 118.562C205.243 124.593 197.864 126.096 193.221 121.77C189.928 118.703 189.103 113.37 189.098 95.1151L189.092 77.8651H178.092H167.092V83.3651ZM273.477 92.9531C277.528 96.1401 279.092 100.074 279.092 107.081C279.092 120.845 270.141 127.079 258.798 121.213C250.295 116.816 250.057 98.2881 258.435 92.9211C262.742 90.1621 269.948 90.1771 273.477 92.9531Z" fill="#64C4D2"/>
<path d="M385.592 13.2721C451.042 7.99909 514.042 2.88609 525.592 1.91009C537.142 0.934094 546.929 0.0750946 547.342 9.45694e-05C547.755 -0.0739054 548.092 43.2901 548.092 96.3651C548.092 183.594 547.94 192.865 546.514 192.865C545.646 192.865 539.684 192.406 533.264 191.844C509.403 189.756 262.311 169.865 260.242 169.865C258.152 169.865 258.092 169.5 258.092 156.865V143.865H261.092H264.092V153.865V163.865H266.639C268.04 163.865 330.139 168.815 404.637 174.865C479.135 180.915 540.314 185.865 540.59 185.865C540.866 185.865 541.092 145.815 541.092 96.8651V7.86509H537.493C533.704 7.86509 278.386 28.3791 269.342 29.4101L264.092 30.0091V39.9371V49.8651H261.092H258.092V36.9261V23.9881L262.342 23.4241C264.679 23.1141 320.142 18.5461 385.592 13.2721Z" fill="white"/>
<path d="M391.297 82.0211C390.515 71.2071 396.851 64.1631 410.064 61.1571C416.465 59.7001 431.764 60.1351 440.342 62.0161L446.092 63.2781V74.0711V84.8651H439.708H433.325L432.632 78.3961C431.943 71.9631 431.92 71.9231 428.42 71.2671C426.484 70.9041 421.988 70.8401 418.428 71.1261C411.183 71.7081 407.092 74.3961 407.092 78.5741C407.092 84.0581 410.403 86.3511 427.736 92.8671C438.102 96.7641 443.716 100.823 446.147 106.177C450.091 114.865 447.4 125.647 440.077 130.493C431.989 135.846 416.831 137.314 400.092 134.365C395.417 133.542 391.479 132.867 391.342 132.866C391.205 132.866 391.092 127.894 391.092 121.819V110.774L397.842 111.069L404.592 111.365L405.092 117.325C405.652 123.996 406.406 124.569 414.899 124.765C424.971 124.998 432.092 120.972 432.092 115.045C432.092 110.849 428.469 108.222 416.732 103.907C397.107 96.6921 392.043 92.3341 391.297 82.0211Z" fill="#FCB421"/>
<path d="M305.092 73.8651V67.3651V60.8651H320.092H335.092V67.3651V73.8651H331.516H327.939L328.266 93.1151C328.533 108.91 328.897 112.922 330.291 115.467C335.648 125.246 352.794 125.11 357.649 115.25C359.278 111.941 359.615 108.583 359.921 92.6151L360.279 73.8651H356.686H353.092V67.3651V60.8651H368.092H383.092V67.3651V73.8651H379.696H376.301L375.874 93.6151C375.384 116.277 374.063 121.613 367.348 128.046C362.294 132.888 358.435 134.683 350.731 135.774C335.716 137.9 323.199 133.748 317.524 124.757C313.217 117.934 312.092 111.081 312.092 91.6551V73.8651H308.592H305.092Z" fill="#FCB421"/>
<path fill-rule="evenodd" clip-rule="evenodd" d="M456.092 66.8651V72.8651H459.592H463.092V97.8651V122.865H459.592H456.092V129.365V135.865H471.092H486.092V129.365V122.865H482.592H479.092V116.865V110.865L485.342 110.845C510.288 110.766 521.525 102.581 521.345 84.6211C521.224 72.6411 516.042 65.7611 504.53 62.2961C501.032 61.2431 494 60.8651 477.933 60.8651H456.092V66.8651ZM503.184 94.2371C509.106 88.3111 507.532 77.5251 500.342 74.7571C498.829 74.1741 493.429 73.4441 488.342 73.1351L479.092 72.5711V85.3091V98.0471L489.575 97.7061C499.791 97.3741 500.138 97.2851 503.184 94.2371Z" fill="#FCB421"/>
</svg>
